<svg width="64" height="64" viewBox="0 0 54 52" fill="none" xmlns="http://www.w3.org/2000/svg">
    <path d="M49.5 25.9251C49.5 21.2251 48.1875 17.0001 45.5625 13.2501C42.9375 9.50013 39.5 6.77513 35.25 5.07513C34.65 4.82513 34.225 4.42513 33.975 3.87513C33.725 3.32513 33.725 2.77513 33.975 2.22513C34.225 1.62513 34.6625 1.21263 35.2875 0.987627C35.9125 0.762627 36.55 0.775127 37.2 1.02513C42.25 3.07513 46.3125 6.35013 49.3875 10.8501C52.4625 15.3501 54 20.3751 54 25.9251C54 31.4751 52.4625 36.5001 49.3875 41.0001C46.3125 45.5001 42.25 48.7751 37.2 50.8251C36.55 51.0751 35.9125 51.0876 35.2875 50.8626C34.6625 50.6376 34.225 50.2251 33.975 49.6251C33.725 49.0751 33.725 48.5251 33.975 47.9751C34.225 47.4251 34.65 47.0251 35.25 46.7751C39.5 45.0751 42.9375 42.3501 45.5625 38.6001C48.1875 34.8501 49.5 30.6251 49.5 25.9251ZM12 35.0001H2.25C1.6 35.0001 1.0625 34.7876 0.6375 34.3626C0.2125 33.9376 0 33.4001 0 32.7501V19.2501C0 18.6001 0.2125 18.0626 0.6375 17.6376C1.0625 17.2126 1.6 17.0001 2.25 17.0001H12L23.175 5.82513C23.875 5.12513 24.6875 4.96263 25.6125 5.33763C26.5375 5.71263 27 6.40013 27 7.40013V44.6001C27 45.6001 26.5375 46.2876 25.6125 46.6626C24.6875 47.0376 23.875 46.8751 23.175 46.1751L12 35.0001ZM40.5 26.0001C40.5 28.6001 39.85 30.9501 38.55 33.0501C37.25 35.1501 35.425 36.7501 33.075 37.8501C32.675 38.0501 32.3125 38.0251 31.9875 37.7751C31.6625 37.5251 31.5 37.2001 31.5 36.8001V15.1251C31.5 14.7251 31.6625 14.4001 31.9875 14.1501C32.3125 13.9001 32.675 13.8751 33.075 14.0751C35.425 15.1751 37.25 16.8001 38.55 18.9501C39.85 21.1001 40.5 23.4501 40.5 26.0001ZM22.5 13.4001L14.025 21.5001H4.5V30.5001H14.025L22.5 38.6751V13.4001Z" fill="#E5E9EB"/>
</svg>
