<svg width="72" height="72" viewBox="0 0 60 59" fill="none" xmlns="http://www.w3.org/2000/svg">
    <path d="M47.0743 49.8999C46.2243 50.4999 45.3368 51.0499 44.4118 51.5499C43.4868 52.0499 42.5243 52.4999 41.5243 52.8999C40.9243 53.1499 40.3118 53.1499 39.6868 52.8999C39.0618 52.6499 38.6243 52.2249 38.3743 51.6249C38.1243 51.0749 38.1368 50.5249 38.4118 49.9749C38.6868 49.4249 39.1243 49.0249 39.7243 48.7749C40.5743 48.4749 41.4118 48.1124 42.2368 47.6874C43.0618 47.2624 43.8243 46.7249 44.5243 46.0749L31.4743 34.2249V46.5999C31.4743 47.5999 31.0118 48.2874 30.0868 48.6624C29.1618 49.0374 28.3493 48.8749 27.6493 48.1749L16.4743 36.9999H6.72434C6.07434 36.9999 5.53684 36.7874 5.11184 36.3624C4.68684 35.9374 4.47434 35.3999 4.47434 34.7499V21.2499C4.47434 20.5999 4.68684 20.0624 5.11184 19.6374C5.53684 19.2124 6.07434 18.9999 6.72434 18.9999H16.1743L1.24934 4.07493C0.799337 3.62493 0.586837 3.08743 0.611837 2.46243C0.636837 1.83743 0.874337 1.29993 1.32434 0.849927C1.77434 0.399927 2.31184 0.174927 2.93684 0.174927C3.56184 0.174927 4.09934 0.399927 4.54934 0.849927L58.6243 54.9249C59.0743 55.3749 59.2993 55.9124 59.2993 56.5374C59.2993 57.1624 59.0743 57.6999 58.6243 58.1499C58.1743 58.5999 57.6243 58.8249 56.9743 58.8249C56.3243 58.8249 55.7743 58.5999 55.3243 58.1499L47.0743 49.8999ZM54.2743 42.3999L51.0493 39.1749C52.0493 37.4749 52.7868 35.6749 53.2618 33.7749C53.7368 31.8749 53.9743 29.9249 53.9743 27.9249C53.9743 23.2749 52.6618 19.0624 50.0368 15.2874C47.4118 11.5124 43.9743 8.77493 39.7243 7.07493C39.1243 6.82493 38.6993 6.42493 38.4493 5.87493C38.1993 5.32493 38.1993 4.77493 38.4493 4.22493C38.6993 3.62493 39.1368 3.21243 39.7618 2.98743C40.3868 2.76243 41.0243 2.77493 41.6743 3.02493C46.7243 5.07493 50.7868 8.33743 53.8618 12.8124C56.9368 17.2874 58.4743 22.3249 58.4743 27.9249C58.4743 30.4749 58.1243 32.9749 57.4243 35.4249C56.7243 37.8749 55.6743 40.1999 54.2743 42.3999ZM44.2243 32.3499L37.4743 25.5999V17.8749C37.4743 17.4249 37.6618 17.0874 38.0368 16.8624C38.4118 16.6374 38.7993 16.6499 39.1993 16.8999C41.0993 18.0499 42.5368 19.6374 43.5118 21.6624C44.4868 23.6874 44.9743 25.7999 44.9743 27.9999C44.9743 28.7499 44.9118 29.4874 44.7868 30.2124C44.6618 30.9374 44.4743 31.6499 44.2243 32.3499ZM31.4743 19.5999L23.6743 11.7999L27.6493 7.82493C28.3493 7.12493 29.1618 6.96243 30.0868 7.33743C31.0118 7.71243 31.4743 8.39993 31.4743 9.39993V19.5999ZM26.9743 41.0499V29.7999L20.6743 23.4999H8.97434V32.4999H18.4243L26.9743 41.0499Z" fill="#E5E9EB"/>
</svg>
